<svg width="30" height="30" viewBox="0 0 30 30" fill="none" xmlns="http://www.w3.org/2000/svg">
<path d="M11.9685 21.969C11.8015 21.969 11.64 21.9375 11.484 21.8745C11.328 21.8125 11.177 21.7085 11.031 21.5625L5.74945 16.281C5.49945 16.031 5.37995 15.7135 5.39095 15.3285C5.40095 14.9425 5.53095 14.6245 5.78095 14.3745C6.03095 14.1245 6.34345 13.9995 6.71845 13.9995C7.09345 13.9995 7.40595 14.1245 7.65595 14.3745L12.0315 18.75L22.3755 8.406C22.6255 8.156 22.9325 8.031 23.2965 8.031C23.6615 8.031 23.969 8.156 24.219 8.406C24.469 8.656 24.594 8.9635 24.594 9.3285C24.594 9.6925 24.469 9.9995 24.219 10.2495L12.906 21.5625C12.76 21.7085 12.609 21.8125 12.453 21.8745C12.297 21.9375 12.1355 21.969 11.9685 21.969V21.969Z" fill="#156B2D"/>
</svg>
