<svg width="30" height="30" viewBox="0 0 30 30" fill="none" xmlns="http://www.w3.org/2000/svg">
<path d="M5.12549 25.0005C4.43749 25.0005 3.82799 24.7345 3.29699 24.2025C2.76599 23.6715 2.50049 23.0625 2.50049 22.3755V7.6245C2.50049 6.9375 2.76599 6.3285 3.29699 5.7975C3.82799 5.2655 4.43749 4.9995 5.12549 4.9995H12.375L14.8755 7.5H25.0005C25.6875 7.5 26.276 7.7655 26.766 8.2965C27.255 8.8275 27.4995 9.437 27.4995 10.125H13.782L11.2815 7.6245H5.12549V22.3755L8.15699 12.75H29.3745L26.094 23.2185C25.927 23.7605 25.63 24.193 25.203 24.516C24.776 24.839 24.2915 25.0005 23.7495 25.0005H5.12549ZM7.87499 22.3755H23.625L25.875 15.2505H10.125L7.87499 22.3755ZM7.87499 22.3755L10.125 15.2505L7.87499 22.3755ZM5.12549 10.125V7.6245V10.125Z" fill="black"/>
</svg>
