<svg width="20" height="20" viewBox="0 0 20 20" fill="none" xmlns="http://www.w3.org/2000/svg">
<path d="M13.417 10.875L11.667 9.125H13.417C13.653 9.125 13.8577 9.21167 14.031 9.385C14.205 9.559 14.292 9.764 14.292 10C14.292 10.236 14.205 10.441 14.031 10.615C13.8577 10.7883 13.653 10.875 13.417 10.875ZM16.188 13.646L14.854 12.312C15.4233 12.1453 15.854 11.8503 16.146 11.427C16.4373 11.0037 16.583 10.528 16.583 10C16.583 9.30533 16.354 8.729 15.896 8.271C15.4373 7.81233 14.861 7.583 14.167 7.583H11.646C11.41 7.583 11.205 7.49633 11.031 7.323C10.8577 7.149 10.771 6.944 10.771 6.708C10.771 6.472 10.8577 6.26733 11.031 6.094C11.205 5.92 11.41 5.833 11.646 5.833H14.167C15.3197 5.833 16.3023 6.23933 17.115 7.052C17.927 7.86467 18.333 8.84733 18.333 10C18.333 10.8053 18.1353 11.524 17.74 12.156C17.344 12.788 16.8267 13.2847 16.188 13.646ZM15.833 18.208L1.771 4.167C1.60433 4.00033 1.521 3.79533 1.521 3.552C1.521 3.30933 1.60433 3.10467 1.771 2.938C1.93766 2.77133 2.14233 2.688 2.385 2.688C2.62833 2.688 2.83333 2.77133 3 2.938L17.062 17C17.2287 17.1667 17.312 17.368 17.312 17.604C17.312 17.84 17.2287 18.0413 17.062 18.208C16.8953 18.3747 16.6907 18.458 16.448 18.458C16.2047 18.458 15.9997 18.3747 15.833 18.208V18.208ZM8.25 14.167H5.833C4.68033 14.167 3.69766 13.7607 2.885 12.948C2.073 12.1353 1.667 11.1527 1.667 10C1.667 9.028 1.96533 8.17033 2.562 7.427C3.15933 6.68367 3.90933 6.194 4.812 5.958L5.354 6L6.438 7.583H5.833C5.139 7.583 4.56266 7.81233 4.104 8.271C3.646 8.729 3.417 9.30533 3.417 10C3.417 10.6947 3.646 11.271 4.104 11.729C4.56266 12.1877 5.139 12.417 5.833 12.417H8.25C8.486 12.417 8.691 12.5037 8.865 12.677C9.03833 12.851 9.125 13.056 9.125 13.292C9.125 13.528 9.03833 13.7327 8.865 13.906C8.691 14.08 8.486 14.167 8.25 14.167ZM9.729 10.875H6.583C6.347 10.875 6.14233 10.7883 5.969 10.615C5.795 10.441 5.708 10.236 5.708 10C5.708 9.764 5.795 9.559 5.969 9.385C6.14233 9.21167 6.347 9.125 6.583 9.125H7.979L9.729 10.875Z" fill="#BC0808"/>
</svg>
