<svg width="30" height="30" viewBox="0 0 30 30" fill="none" xmlns="http://www.w3.org/2000/svg">
<path d="M20.1255 16.3125L17.5005 13.6875H20.1255C20.4795 13.6875 20.7865 13.8175 21.0465 14.0775C21.3075 14.3385 21.438 14.646 21.438 15C21.438 15.354 21.3075 15.6615 21.0465 15.9225C20.7865 16.1825 20.4795 16.3125 20.1255 16.3125ZM24.282 20.469L22.281 18.468C23.135 18.218 23.781 17.7755 24.219 17.1405C24.656 16.5055 24.8745 15.792 24.8745 15C24.8745 13.958 24.531 13.0935 23.844 12.4065C23.156 11.7185 22.2915 11.3745 21.2505 11.3745H17.469C17.115 11.3745 16.8075 11.2445 16.5465 10.9845C16.2865 10.7235 16.1565 10.416 16.1565 10.062C16.1565 9.708 16.2865 9.401 16.5465 9.141C16.8075 8.88 17.115 8.7495 17.469 8.7495H21.2505C22.9795 8.7495 24.4535 9.359 25.6725 10.578C26.8905 11.797 27.4995 13.271 27.4995 15C27.4995 16.208 27.203 17.286 26.61 18.234C26.016 19.182 25.24 19.927 24.282 20.469ZM23.7495 27.312L2.65649 6.2505C2.40649 6.0005 2.28149 5.693 2.28149 5.328C2.28149 4.964 2.40649 4.657 2.65649 4.407C2.90649 4.157 3.21349 4.032 3.57749 4.032C3.94249 4.032 4.24999 4.157 4.49999 4.407L25.593 25.5C25.843 25.75 25.968 26.052 25.968 26.406C25.968 26.76 25.843 27.062 25.593 27.312C25.343 27.562 25.036 27.687 24.672 27.687C24.307 27.687 23.9995 27.562 23.7495 27.312V27.312ZM12.375 21.2505H8.74949C7.02049 21.2505 5.54649 20.641 4.32749 19.422C3.10949 18.203 2.50049 16.729 2.50049 15C2.50049 13.542 2.94799 12.2555 3.84299 11.1405C4.73899 10.0255 5.86399 9.291 7.21799 8.937L8.03099 9L9.65699 11.3745H8.74949C7.70849 11.3745 6.84399 11.7185 6.15599 12.4065C5.46899 13.0935 5.12549 13.958 5.12549 15C5.12549 16.042 5.46899 16.9065 6.15599 17.5935C6.84399 18.2815 7.70849 18.6255 8.74949 18.6255H12.375C12.729 18.6255 13.0365 18.7555 13.2975 19.0155C13.5575 19.2765 13.6875 19.584 13.6875 19.938C13.6875 20.292 13.5575 20.599 13.2975 20.859C13.0365 21.12 12.729 21.2505 12.375 21.2505ZM14.5935 16.3125H9.87449C9.52049 16.3125 9.21349 16.1825 8.95349 15.9225C8.69249 15.6615 8.56199 15.354 8.56199 15C8.56199 14.646 8.69249 14.3385 8.95349 14.0775C9.21349 13.8175 9.52049 13.6875 9.87449 13.6875H11.9685L14.5935 16.3125Z" fill="#BC0808"/>
</svg>
