<svg width="30" height="30" viewBox="0 0 30 30" fill="none" xmlns="http://www.w3.org/2000/svg">
<path d="M8.74949 21.2505C7.02049 21.2505 5.54649 20.641 4.32749 19.422C3.10949 18.203 2.50049 16.729 2.50049 15C2.50049 13.271 3.10949 11.797 4.32749 10.578C5.54649 9.359 7.02049 8.7495 8.74949 8.7495H12.375C12.729 8.7495 13.0365 8.88 13.2975 9.141C13.5575 9.401 13.6875 9.708 13.6875 10.062C13.6875 10.416 13.5575 10.7235 13.2975 10.9845C13.0365 11.2445 12.729 11.3745 12.375 11.3745H8.74949C7.70849 11.3745 6.84399 11.7185 6.15599 12.4065C5.46899 13.0935 5.12549 13.958 5.12549 15C5.12549 16.042 5.46899 16.9065 6.15599 17.5935C6.84399 18.2815 7.70849 18.6255 8.74949 18.6255H12.375C12.729 18.6255 13.0365 18.7555 13.2975 19.0155C13.5575 19.2765 13.6875 19.584 13.6875 19.938C13.6875 20.292 13.5575 20.599 13.2975 20.859C13.0365 21.12 12.729 21.2505 12.375 21.2505H8.74949ZM11.313 16.3125C10.959 16.3125 10.6515 16.1825 10.3905 15.9225C10.1305 15.6615 10.0005 15.354 10.0005 15C10.0005 14.646 10.1305 14.3385 10.3905 14.0775C10.6515 13.8175 10.959 13.6875 11.313 13.6875H18.687C19.041 13.6875 19.3485 13.8175 19.6095 14.0775C19.8695 14.3385 19.9995 14.646 19.9995 15C19.9995 15.354 19.8695 15.6615 19.6095 15.9225C19.3485 16.1825 19.041 16.3125 18.687 16.3125H11.313ZM17.625 21.2505C17.271 21.2505 16.9635 21.12 16.7025 20.859C16.4425 20.599 16.3125 20.292 16.3125 19.938C16.3125 19.584 16.4425 19.2765 16.7025 19.0155C16.9635 18.7555 17.271 18.6255 17.625 18.6255H21.2505C22.2915 18.6255 23.156 18.2815 23.844 17.5935C24.531 16.9065 24.8745 16.042 24.8745 15C24.8745 13.958 24.531 13.0935 23.844 12.4065C23.156 11.7185 22.2915 11.3745 21.2505 11.3745H17.625C17.271 11.3745 16.9635 11.2445 16.7025 10.9845C16.4425 10.7235 16.3125 10.416 16.3125 10.062C16.3125 9.708 16.4425 9.401 16.7025 9.141C16.9635 8.88 17.271 8.7495 17.625 8.7495H21.2505C22.9795 8.7495 24.4535 9.359 25.6725 10.578C26.8905 11.797 27.4995 13.271 27.4995 15C27.4995 16.729 26.8905 18.203 25.6725 19.422C24.4535 20.641 22.9795 21.2505 21.2505 21.2505H17.625Z" fill="#156B2D"/>
</svg>
