<svg width="20" height="20" viewBox="0 0 20 20" fill="none" xmlns="http://www.w3.org/2000/svg">
<path d="M5.83299 14.167C4.68033 14.167 3.69766 13.7607 2.88499 12.948C2.07299 12.1353 1.66699 11.1527 1.66699 10C1.66699 8.84733 2.07299 7.86467 2.88499 7.052C3.69766 6.23933 4.68033 5.833 5.83299 5.833H8.24999C8.48599 5.833 8.69099 5.92 8.86499 6.094C9.03833 6.26733 9.12499 6.472 9.12499 6.708C9.12499 6.944 9.03833 7.149 8.86499 7.323C8.69099 7.49633 8.48599 7.583 8.24999 7.583H5.83299C5.13899 7.583 4.56266 7.81233 4.10399 8.271C3.64599 8.729 3.41699 9.30533 3.41699 10C3.41699 10.6947 3.64599 11.271 4.10399 11.729C4.56266 12.1877 5.13899 12.417 5.83299 12.417H8.24999C8.48599 12.417 8.69099 12.5037 8.86499 12.677C9.03833 12.851 9.12499 13.056 9.12499 13.292C9.12499 13.528 9.03833 13.7327 8.86499 13.906C8.69099 14.08 8.48599 14.167 8.24999 14.167H5.83299ZM7.54199 10.875C7.30599 10.875 7.10099 10.7883 6.92699 10.615C6.75366 10.441 6.66699 10.236 6.66699 10C6.66699 9.764 6.75366 9.559 6.92699 9.385C7.10099 9.21167 7.30599 9.125 7.54199 9.125H12.458C12.694 9.125 12.899 9.21167 13.073 9.385C13.2463 9.559 13.333 9.764 13.333 10C13.333 10.236 13.2463 10.441 13.073 10.615C12.899 10.7883 12.694 10.875 12.458 10.875H7.54199ZM11.75 14.167C11.514 14.167 11.309 14.08 11.135 13.906C10.9617 13.7327 10.875 13.528 10.875 13.292C10.875 13.056 10.9617 12.851 11.135 12.677C11.309 12.5037 11.514 12.417 11.75 12.417H14.167C14.861 12.417 15.4373 12.1877 15.896 11.729C16.354 11.271 16.583 10.6947 16.583 10C16.583 9.30533 16.354 8.729 15.896 8.271C15.4373 7.81233 14.861 7.583 14.167 7.583H11.75C11.514 7.583 11.309 7.49633 11.135 7.323C10.9617 7.149 10.875 6.944 10.875 6.708C10.875 6.472 10.9617 6.26733 11.135 6.094C11.309 5.92 11.514 5.833 11.75 5.833H14.167C15.3197 5.833 16.3023 6.23933 17.115 7.052C17.927 7.86467 18.333 8.84733 18.333 10C18.333 11.1527 17.927 12.1353 17.115 12.948C16.3023 13.7607 15.3197 14.167 14.167 14.167H11.75Z" fill="#156B2D"/>
</svg>
